<svg width="71" height="71" viewBox="0 0 71 71" fill="none" xmlns="http://www.w3.org/2000/svg">
<path d="M31.0278 18.1313L21.4414 2.15496C21.0472 1.49777 20.4895 0.953861 19.8227 0.576213C19.1559 0.198566 18.4026 5.00952e-05 17.6362 0L2.22282 0C0.427011 0 -0.624126 2.02045 0.404823 3.49176L15.8349 25.535C19.9562 21.6841 25.198 19.041 31.0278 18.1313ZM68.7772 0H53.3638C51.8051 0 50.3601 0.818164 49.5586 2.15496L39.9722 18.1313C45.802 19.041 51.0438 21.6841 55.1651 25.5337L70.5952 3.49176C71.6241 2.02045 70.573 0 68.7772 0ZM35.5 22.1875C22.0211 22.1875 11.0937 33.1148 11.0937 46.5938C11.0937 60.0727 22.0211 71 35.5 71C48.9789 71 59.9063 60.0727 59.9063 46.5938C59.9063 33.1148 48.9789 22.1875 35.5 22.1875ZM48.33 43.995L43.0701 49.1203L44.314 56.3618C44.5359 57.6598 43.1686 58.6513 42.0051 58.0383L35.5 54.6201L28.9963 58.0383C27.8314 58.6554 26.4655 57.6584 26.6874 56.3618L27.9313 49.1203L22.6714 43.995C21.7257 43.0743 22.2485 41.4671 23.552 41.2785L30.8226 40.219L34.0717 33.6293C34.3643 33.0358 34.9301 32.7432 35.4972 32.7432C36.0672 32.7432 36.6371 33.04 36.9297 33.6293L40.1788 40.219L47.4494 41.2785C48.7529 41.4671 49.2757 43.0743 48.33 43.995Z" fill="#FF4C4C"/>
</svg>
