<svg width="50" height="77" viewBox="0 0 50 77" fill="none" xmlns="http://www.w3.org/2000/svg">
<path d="M31.1823 4.81917L25.8258 33.3871L45.231 33.4534L18.8169 72.1815L24.1735 40.7522L4.76948 40.6835L31.1823 4.81917ZM31.186 -9.35336e-05C31.0578 -9.35336e-05 30.9297 0.00465051 30.8038 0.0142139C29.9659 0.0829648 29.4103 0.367306 28.7516 0.81671C28.3807 1.06772 28.0463 1.37026 27.7582 1.71552C27.6716 1.81916 27.59 1.92691 27.5136 2.03841L0.910744 37.7775C-0.139696 39.2389 -0.293998 41.1679 0.513119 42.78C1.31905 44.3921 2.94871 45.4138 4.73506 45.427L18.4394 45.5282L14.1309 71.2961C13.7214 73.5106 14.8846 75.7178 16.932 76.607C17.5271 76.8665 18.168 77.0002 18.8156 76.9998C20.3076 76.9998 21.5337 76.2913 22.4537 75.0118L49.0897 36.2835C50.1402 34.8219 50.2934 32.8906 49.4874 31.2809C48.6814 29.6688 47.0518 28.6471 45.2654 28.6339L31.561 28.6098L35.8233 5.95285C35.9136 5.58191 35.9591 5.20119 35.9587 4.8191C35.9587 2.21183 33.9135 0.086504 31.3545 0.00216553C31.2976 -0.00024414 31.2417 -9.35336e-05 31.186 -9.35336e-05Z" fill="#FF4C4C"/>
</svg>
