<svg width="72" height="69" viewBox="0 0 72 69" fill="none" xmlns="http://www.w3.org/2000/svg">
<path d="M61.2 14.5263H50.4V10.8947C50.4 8.00527 49.2621 5.23415 47.2368 3.19099C45.2114 1.14784 42.4643 0 39.6 0H32.4C29.5357 0 26.7886 1.14784 24.7632 3.19099C22.7379 5.23415 21.6 8.00527 21.6 10.8947V14.5263H10.8C7.93566 14.5263 5.18864 15.6742 3.16325 17.7173C1.13785 19.7605 0 22.5316 0 25.4211V58.1053C0 60.9947 1.13785 63.7658 3.16325 65.809C5.18864 67.8522 7.93566 69 10.8 69H61.2C64.0643 69 66.8114 67.8522 68.8368 65.809C70.8621 63.7658 72 60.9947 72 58.1053V25.4211C72 22.5316 70.8621 19.7605 68.8368 17.7173C66.8114 15.6742 64.0643 14.5263 61.2 14.5263ZM28.8 10.8947C28.8 9.93158 29.1793 9.00788 29.8544 8.32682C30.5295 7.64577 31.4452 7.26316 32.4 7.26316H39.6C40.5548 7.26316 41.4705 7.64577 42.1456 8.32682C42.8207 9.00788 43.2 9.93158 43.2 10.8947V14.5263H28.8V10.8947ZM64.8 58.1053C64.8 59.0684 64.4207 59.9921 63.7456 60.6732C63.0705 61.3542 62.1548 61.7368 61.2 61.7368H10.8C9.84522 61.7368 8.92955 61.3542 8.25442 60.6732C7.57929 59.9921 7.2 59.0684 7.2 58.1053V39.7658H18V43.5789C18 44.5421 18.3793 45.4658 19.0544 46.1469C19.7295 46.8279 20.6452 47.2105 21.6 47.2105C22.5548 47.2105 23.4705 46.8279 24.1456 46.1469C24.8207 45.4658 25.2 44.5421 25.2 43.5789V39.7658H46.8V43.5789C46.8 44.5421 47.1793 45.4658 47.8544 46.1469C48.5295 46.8279 49.4452 47.2105 50.4 47.2105C51.3548 47.2105 52.2705 46.8279 52.9456 46.1469C53.6207 45.4658 54 44.5421 54 43.5789V39.7658H64.8V58.1053ZM64.8 32.6842H7.2V25.4211C7.2 24.4579 7.57929 23.5342 8.25442 22.8531C8.92955 22.1721 9.84522 21.7895 10.8 21.7895H61.2C62.1548 21.7895 63.0705 22.1721 63.7456 22.8531C64.4207 23.5342 64.8 24.4579 64.8 25.4211V32.6842Z" fill="#FF4C4C"/>
</svg>
