<svg width="106" height="87" viewBox="0 0 106 87" fill="none" xmlns="http://www.w3.org/2000/svg">
<path d="M0 87V73.4667C0 70.8083 0.684723 68.3111 2.05417 65.975C3.42361 63.6389 5.31667 61.8667 7.73333 60.6583C11.8417 58.5639 16.4736 56.7917 21.6292 55.3417C26.7847 53.8917 32.4639 53.1667 38.6667 53.1667C44.8694 53.1667 50.5486 53.8917 55.7042 55.3417C60.8597 56.7917 65.4917 58.5639 69.6 60.6583C72.0167 61.8667 73.9097 63.6389 75.2792 65.975C76.6486 68.3111 77.3333 70.8083 77.3333 73.4667V87H0ZM25.0125 42.6542C21.2264 38.8681 19.3333 34.3167 19.3333 29H18.125C17.4 29 16.8168 28.7793 16.3753 28.3378C15.9339 27.8964 15.7116 27.3116 15.7083 26.5833C15.7051 25.8551 15.9274 25.2703 16.3753 24.8288C16.8232 24.3874 17.4064 24.1667 18.125 24.1667H19.3333C19.3333 20.5417 20.2194 17.2792 21.9917 14.3792C23.7639 11.4792 26.1 9.18333 29 7.49167V12.0833C29 12.8083 29.2223 13.3932 29.667 13.8378C30.1117 14.2825 30.6949 14.5032 31.4167 14.5C32.1384 14.4968 32.7233 14.2761 33.1712 13.8378C33.6191 13.3996 33.8398 12.8148 33.8333 12.0833V5.55833C34.5583 5.31667 35.3236 5.13622 36.1292 5.017C36.9347 4.89778 37.7806 4.83656 38.6667 4.83333C39.5528 4.83011 40.3986 4.89133 41.2042 5.017C42.0097 5.14267 42.775 5.32311 43.5 5.55833V12.0833C43.5 12.8083 43.7223 13.3932 44.167 13.8378C44.6117 14.2825 45.1949 14.5032 45.9167 14.5C46.6384 14.4968 47.2233 14.2761 47.6712 13.8378C48.1191 13.3996 48.3398 12.8148 48.3333 12.0833V7.49167C51.2333 9.18333 53.5694 11.4792 55.3417 14.3792C57.1139 17.2792 58 20.5417 58 24.1667H59.2083C59.9333 24.1667 60.5182 24.389 60.9628 24.8337C61.4075 25.2783 61.6282 25.8616 61.625 26.5833C61.6218 27.3051 61.4011 27.8899 60.9628 28.3378C60.5246 28.7857 59.9398 29.0064 59.2083 29H58C58 34.3167 56.1069 38.8681 52.3208 42.6542C48.5347 46.4403 43.9833 48.3333 38.6667 48.3333C33.35 48.3333 28.7986 46.4403 25.0125 42.6542ZM45.4962 35.8295C47.3876 33.9348 48.3333 31.6583 48.3333 29H29C29 31.6583 29.9473 33.9348 31.842 35.8295C33.7367 37.7242 36.0116 38.6699 38.6667 38.6667C41.3218 38.6634 43.5983 37.7177 45.4962 35.8295ZM74.9167 58L74.1917 54.375C73.7083 54.2139 73.2459 54.0334 72.8045 53.8337C72.3631 53.6339 71.9393 53.331 71.5333 52.925L68.15 54.1333L65.7333 49.7833L68.3917 47.3667V44.4667L65.7333 42.05L68.15 37.7L71.5333 38.9083C71.8556 38.5861 72.2583 38.3042 72.7417 38.0625C73.225 37.8208 73.7083 37.6194 74.1917 37.4583L74.9167 33.8333H79.75L80.475 37.4583C80.9583 37.6194 81.4417 37.8208 81.925 38.0625C82.4083 38.3042 82.8111 38.5861 83.1333 38.9083L86.5167 37.7L88.9333 42.05L86.275 44.4667V47.3667L88.9333 49.7833L86.5167 54.1333L83.1333 52.925C82.7306 53.3278 82.3085 53.6307 81.867 53.8337C81.4256 54.0367 80.9616 54.2171 80.475 54.375L79.75 58H74.9167ZM79.8708 48.4542C80.5958 47.7292 80.9583 46.8833 80.9583 45.9167C80.9583 44.95 80.5958 44.1042 79.8708 43.3792C79.1458 42.6542 78.3 42.2917 77.3333 42.2917C76.3667 42.2917 75.5208 42.6542 74.7958 43.3792C74.0708 44.1042 73.7083 44.95 73.7083 45.9167C73.7083 46.8833 74.0708 47.7292 74.7958 48.4542C75.5208 49.1792 76.3667 49.5417 77.3333 49.5417C78.3 49.5417 79.1458 49.1792 79.8708 48.4542ZM86.0333 33.8333L85.0667 28.7583C84.3417 28.5167 83.6763 28.2154 83.0705 27.8545C82.4647 27.4936 81.9218 27.0699 81.4417 26.5833L76.3667 28.275L72.9833 22.475L77.0917 18.85C76.9306 18.4472 76.85 18.125 76.85 17.8833V15.95C76.85 15.7083 76.9306 15.3861 77.0917 14.9833L72.9833 11.3583L76.3667 5.55833L81.4417 7.25C81.925 6.76667 82.4696 6.34294 83.0753 5.97883C83.6811 5.61472 84.3449 5.31345 85.0667 5.075L86.0333 0H92.8L93.7667 5.075C94.4917 5.31667 95.1571 5.61956 95.7628 5.98367C96.3686 6.34778 96.9116 6.76989 97.3917 7.25L102.467 5.55833L105.85 11.3583L101.742 14.9833C101.903 15.3861 101.983 15.7083 101.983 15.95V17.8833C101.983 18.125 101.903 18.4472 101.742 18.85L105.85 22.475L102.467 28.275L97.3917 26.5833C96.9083 27.0667 96.3654 27.4904 95.7628 27.8545C95.1603 28.2186 94.4949 28.5199 93.7667 28.7583L92.8 33.8333H86.0333ZM93.7038 21.2038C94.8735 20.0374 95.4583 18.6083 95.4583 16.9167C95.4583 15.225 94.8735 13.7943 93.7038 12.6247C92.5342 11.455 91.1051 10.8718 89.4167 10.875C87.7282 10.8782 86.2976 11.4631 85.1247 12.6295C83.9518 13.7959 83.3686 15.225 83.375 16.9167C83.3814 18.6083 83.9663 20.039 85.1295 21.2087C86.2927 22.3783 87.7218 22.9616 89.4167 22.9583C91.1116 22.9551 92.5374 22.3703 93.7038 21.2038Z" fill="#FFC702"/>
</svg>
