<svg width="88" height="55" viewBox="0 0 88 55" fill="none" xmlns="http://www.w3.org/2000/svg">
<path d="M31.3177 26.6365L14.4487 17.1208L20.3162 6.83514L37.2036 16.3508L31.3177 26.6365ZM65.0008 35.4187L36.4885 19.3576L33.5547 24.5096L62.0671 40.5707L65.0008 35.4187ZM68.4663 37.3805L65.5325 42.5325L80.2379 50.8014L83.1717 45.6677L68.4663 37.3805ZM64.5057 42.5325C64.2857 42.9359 63.6623 43.0275 63.1305 42.7342C62.5988 42.4408 62.3604 41.8725 62.5805 41.4508L66.0276 35.437C66.266 35.0337 66.8894 34.9237 67.4028 35.2354C67.9346 35.5287 68.1729 36.1154 67.9346 36.5371L64.5057 42.5508V42.5325ZM86.1971 45.8327C85.6104 45.5027 84.9686 45.356 84.3452 45.3744L80.5863 51.9565C80.898 52.5065 81.3381 52.9832 81.9432 53.3132C83.5934 54.2483 85.6837 53.7166 86.6005 52.1215L87.5723 50.4164C88.4891 48.8213 87.884 46.7678 86.2155 45.8327H86.1971ZM38.8171 14.389C38.3771 15.1957 37.3686 15.4524 36.5618 15.0124L21.7831 6.68846C21.5943 6.58351 21.4282 6.44213 21.2944 6.2725C21.1607 6.10287 21.062 5.90838 21.004 5.7003C20.946 5.49223 20.9299 5.27471 20.9566 5.06037C20.9833 4.84602 21.0523 4.63912 21.1596 4.45165C21.2679 4.26376 21.4122 4.09905 21.5841 3.96693C21.7561 3.83482 21.9524 3.7379 22.1619 3.68171C22.3713 3.62551 22.5898 3.61115 22.8048 3.63945C23.0198 3.66774 23.2272 3.73814 23.415 3.84661L38.1754 12.1705C38.9638 12.6289 39.2572 13.6189 38.7988 14.4073L38.8171 14.389ZM40.8891 10.7771C40.4307 11.5838 39.4222 11.8405 38.6338 11.4004L23.855 3.07656C23.6672 2.96941 23.5023 2.82633 23.3698 2.65547C23.2373 2.48462 23.1397 2.28933 23.0827 2.08077C23.0257 1.87222 23.0103 1.65447 23.0374 1.43996C23.0645 1.22545 23.1336 1.01838 23.2408 0.830576C23.3479 0.642774 23.491 0.477913 23.6619 0.345408C23.8328 0.212903 24.0281 0.115349 24.2366 0.0583149C24.4452 0.00128046 24.663 -0.014117 24.8775 0.013002C25.092 0.0401211 25.2991 0.109225 25.4869 0.216369L40.2657 8.54025C41.0724 8.99862 41.3291 9.98868 40.8891 10.7771ZM28.4023 32.6685C28.2941 32.8564 28.1498 33.0211 27.9778 33.1532C27.8059 33.2854 27.6095 33.3823 27.4001 33.4385C27.1906 33.4947 26.9721 33.509 26.7571 33.4807C26.5421 33.4524 26.3348 33.382 26.147 33.2736L11.3683 24.9497C10.9906 24.7342 10.7132 24.3783 10.5965 23.9595C10.4798 23.5406 10.5331 23.0926 10.7448 22.7129C10.9669 22.3371 11.3274 22.0632 11.749 21.9501C12.1706 21.837 12.6198 21.8936 13.0002 22.1078L27.7789 30.4317C28.5674 30.8717 28.8424 31.8801 28.4023 32.6685ZM30.4743 29.0383C30.0342 29.845 29.0257 30.1017 28.219 29.6617L13.4402 21.3378C13.0625 21.1223 12.7852 20.7664 12.6685 20.3476C12.5517 19.9287 12.605 19.4807 12.8168 19.101C12.9251 18.9131 13.0693 18.7484 13.2413 18.6162C13.4133 18.4841 13.6096 18.3872 13.819 18.331C14.0285 18.2748 14.247 18.2605 14.462 18.2888C14.677 18.317 14.8843 18.3874 15.0721 18.4959L29.8509 26.8198C30.6393 27.2782 30.9327 28.2682 30.4743 29.0566V29.0383ZM5.68413 43.8526H31.7211V46.8411H5.68413V43.8526ZM37.4236 50.1047C37.3449 49.6124 37.0928 49.1645 36.7129 48.8418C36.333 48.519 35.8502 48.3427 35.3516 48.3446H2.10863C1.06348 48.3446 0.183359 49.1146 0.0366718 50.1047H0V55H37.4969V50.1047H37.4603H37.4236Z" fill="#FF4C4C"/>
</svg>
