<svg width="110" height="110" viewBox="0 0 110 110" fill="none" xmlns="http://www.w3.org/2000/svg">
<path d="M23.4197 8.27063L18.5797 13.1038L25.7812 20.3019L30.6144 15.4688L23.4197 8.27063ZM86.5837 8.27063L79.3822 15.4688L84.2188 20.3019L91.4169 13.1072L86.5837 8.27063ZM55 10.4156C53.8656 10.4248 52.7198 10.4981 51.5625 10.6356H51.4594C37.5169 12.2341 26.4206 23.4988 24.4922 37.3794C22.9522 48.5513 27.5584 58.6816 35.2344 65.2059C38.3738 67.886 40.4975 71.563 41.25 75.6216V96.2466H49.0875C50.2837 98.2988 52.4666 99.6841 55 99.6841C57.5334 99.6841 59.7162 98.2988 60.9125 96.2466H68.75V82.4966H69.0731V78.4128C69.0731 73.3734 71.6925 68.2928 75.9481 64.3431C81.6406 58.6438 85.9375 50.5484 85.9375 41.25C85.9375 24.2688 71.9606 10.2575 55 10.4156ZM55 17.2906C68.2859 17.105 79.0625 27.9813 79.0625 41.25C79.0625 48.4481 75.7281 54.7869 71.1116 59.4L71.2216 59.51C66.6357 63.742 63.6694 69.441 62.8341 75.625H47.7984C47.0422 69.7331 44.5156 64.0303 39.7409 59.9397C33.6669 54.7834 30.0472 47.0147 31.2572 38.2422C32.7594 27.4141 41.5456 18.7069 52.3119 17.5141C53.2008 17.3908 54.096 17.3173 54.9931 17.2941L55 17.2906ZM6.875 41.25V48.125H17.1875V41.25H6.875ZM92.8125 41.25V48.125H103.125V41.25H92.8125ZM25.7812 69.0731L18.5831 76.2678L23.4197 81.1044L30.6109 73.9063L25.7812 69.0731ZM84.2188 69.0731L79.3856 73.9063L86.5803 81.1044L91.4169 76.2678L84.2188 69.0731ZM48.125 82.5H61.875V89.375H48.125V82.5Z" fill="#FFC702"/>
</svg>
