<svg width="67" height="67" viewBox="0 0 67 67" fill="none" xmlns="http://www.w3.org/2000/svg">
<path d="M5.8108 3L4.5022 4.23466L1.23421 7.50385L0 8.81292L0.943673 10.3382L5.8108 18.4763L6.46393 19.6389H13.2951L22.5924 28.8675C14.2853 37.2148 3.71659 47.8222 3.34469 48.1966C-0.297513 51.8378 -0.304486 57.8042 3.41442 61.2756C7.04733 64.8611 12.9674 64.9541 16.419 61.2756L16.4887 61.2012L30.7972 46.8154L45.1801 61.2733L45.3963 61.4198C49.0454 64.8611 54.8493 64.9076 58.2544 61.2733V61.2036H58.3241C61.885 57.56 61.9222 51.6378 58.2544 48.1943L58.18 48.1245L46.0517 36.0615C54.2124 35.2989 60.6043 28.4048 60.7228 20.076H60.7949C60.8042 20.0295 60.7949 19.976 60.7949 19.9295V19.8575C61.0226 17.1696 60.4416 14.5979 59.0516 12.3727L57.4571 9.90574L46.6328 20.7317L43.3648 17.316L54.4053 6.27151L51.2094 4.96477C49.1713 4.06569 46.9705 3.59481 44.7431 3.58129C35.8084 3.58129 28.4729 10.9195 28.4729 19.8575C28.4729 20.8294 28.6821 21.6734 28.8355 22.5453C27.8198 23.5638 27.0574 24.3985 25.858 25.5983L16.6328 16.3697V9.46629L15.4707 8.81292L7.33555 3.94402L5.8108 3ZM44.7431 8.23162C45.0685 8.23162 45.2963 8.42229 45.6147 8.45019L36.8265 17.2416L38.4233 18.9134L44.9616 25.6704L46.5584 27.3422L55.7836 18.1136C55.8301 18.6484 56.2113 19.039 56.1462 19.6389V19.8575C56.1462 26.261 50.9258 31.4833 44.5246 31.4833C43.6716 31.4833 42.6373 31.2833 41.4751 31.0462L40.2386 30.8299L39.367 31.7019L13.1487 58.0041H13.0743V58.0785C11.424 59.8852 8.5349 59.9294 6.61036 58.0041V57.9321H6.53598C4.72999 56.2812 4.68582 53.391 6.61036 51.4658C7.49128 50.5822 24.5494 33.3713 32.903 25.017L33.849 24.073L33.4841 22.7639C33.2617 21.8105 33.1401 20.8363 33.1215 19.8575C33.1215 13.4539 38.342 8.23162 44.7431 8.23162ZM6.53598 8.81292L11.9842 12.1565V14.4817L11.4775 14.9886H9.15317L5.8108 9.54069L6.53598 8.81292ZM40.5291 37.0776L54.9864 51.4658V51.5378H55.0561C56.8644 53.1887 56.9086 56.0789 54.9864 58.0041H54.912V58.0785C53.2617 59.8852 50.3726 59.9294 48.4481 58.0041L34.0652 43.5463L40.5291 37.0776Z" fill="white"/>
</svg>
