<svg width="105" height="105" viewBox="0 0 105 105" fill="none" xmlns="http://www.w3.org/2000/svg">
<path d="M37.1875 79.5813C33.2238 78.4569 29.5313 76.6763 26.25 74.3576C21.1823 70.7889 17.119 65.9754 14.4514 60.3807C11.7838 54.786 10.6019 48.5986 11.0195 42.4146C11.4372 36.2306 13.4402 30.2583 16.8358 25.073C20.2313 19.8878 24.905 15.6643 30.4065 12.8095C35.908 9.95462 42.0519 8.56458 48.2465 8.77328C54.4411 8.98197 60.4776 10.7823 65.7745 14.001C71.0714 17.2196 75.4502 21.7481 78.4891 27.1501C81.528 32.5521 83.1245 38.6457 83.125 44.8438L94.0625 61.25L85.3125 65.625L84.4244 73.6357C83.9738 77.6607 80.4344 81.0907 76.2213 83.1732C71.89 85.3125 67.8125 89.2282 67.8125 94.0625V96.25M26.25 74.3576V96.25" stroke="#FFC702" stroke-width="4" stroke-linecap="round" stroke-linejoin="round"/>
<path d="M39.1037 55.4181V32.0819M45.9375 32.0819V26.25M45.9375 61.25V55.4181M39.1037 43.75H52.7713M52.7713 43.75C55.0375 43.75 56.875 45.71 56.875 48.125V51.0431C56.875 53.4581 55.0375 55.4181 52.7756 55.4181H35M52.7713 43.75C55.0331 43.75 56.875 41.79 56.875 39.375V36.4569C56.875 34.0419 55.0375 32.0819 52.7756 32.0819H35" stroke="#FFC702" stroke-width="4" stroke-linecap="round" stroke-linejoin="round"/>
</svg>
