<svg width="115" height="105" viewBox="0 0 115 105" fill="none" xmlns="http://www.w3.org/2000/svg">
<path d="M110.465 32.0579C107.583 25.8216 103.4 20.1568 98.1491 15.3793C92.9166 10.5846 86.7123 6.76533 79.882 4.13444C72.801 1.39493 65.1871 -0.0112788 57.4966 6.81259e-05C49.7305 6.81259e-05 42.2052 1.38476 35.1111 4.13444C28.2808 6.76533 22.0765 10.5846 16.8441 15.3793C11.5933 20.1606 7.40516 25.8242 4.51031 32.0579C1.51606 38.5244 -0.0179534 45.4761 0.000158531 52.4968C0.000158531 59.5712 1.51672 66.4421 4.52828 72.9357C7.40973 79.172 11.5927 84.8368 16.8441 89.6143C22.0765 94.409 28.2808 98.2282 35.1111 100.859C42.1862 103.616 49.8041 105.023 57.4966 104.994C65.2447 104.994 72.77 103.625 79.882 100.859C93.6655 95.5536 104.638 85.5472 110.465 72.9685C113.48 66.5188 115.021 59.5749 114.993 52.5624C114.993 45.488 113.476 38.6499 110.465 32.1563V32.0579ZM57.493 97.7157C30.1481 97.7157 7.9675 77.4638 7.9675 52.4968C7.9675 27.5298 30.1481 7.27788 57.493 7.27788C84.8378 7.27788 107.018 27.5298 107.018 52.4968C107.018 77.4638 84.8378 97.7157 57.493 97.7157ZM73.0288 18.0273H41.9572C37.5393 18.0251 33.8149 19.4491 30.7842 22.2994C27.7331 25.1016 26.2166 28.5207 26.2166 32.5009V77.0537C26.2166 79.0191 26.8527 80.5909 28.1248 81.8377C29.397 83.0157 31.0645 83.6851 33.1597 83.6851C35.292 83.6829 37.0146 83.0901 38.3275 81.9066C39.6392 80.709 40.2933 79.1537 40.2933 77.1718V30.9619H50.5498V77.0373C50.5498 78.9863 51.1859 80.558 52.4222 81.7557C53.6584 82.9534 55.3619 83.5669 57.493 83.5669C59.6241 83.5669 61.3311 82.9501 62.5638 81.7557C63.8144 80.5591 64.4385 78.9863 64.4361 77.0373V30.9619H74.7106V77.0373C74.7106 78.9863 75.3467 80.558 76.6584 81.7557C77.9702 82.9534 79.7095 83.5669 81.8263 83.5669C83.9214 83.5669 85.5889 82.9501 86.8611 81.7032C88.1513 80.4891 88.7874 78.9174 88.7874 77.0373V32.4844C88.7897 28.5032 87.2672 25.0962 84.2197 22.2633C81.1866 19.4251 77.4634 17.9912 73.0252 17.9912L73.0288 18.0273Z" fill="#FFC702"/>
</svg>
