<svg width="74" height="52" viewBox="0 0 74 52" fill="none" xmlns="http://www.w3.org/2000/svg">
<path d="M36.6667 22C42.9367 22 47.6667 17.27 47.6667 11C47.6667 4.73 42.9367 0 36.6667 0C30.3967 0 25.6667 4.73 25.6667 11C25.6667 17.27 30.3967 22 36.6667 22ZM36.6667 7.33333C38.8667 7.33333 40.3333 8.8 40.3333 11C40.3333 13.2 38.8667 14.6667 36.6667 14.6667C34.4667 14.6667 33 13.2 33 11C33 8.8 34.4667 7.33333 36.6667 7.33333ZM40.3333 25.6667H33C22.88 25.6667 14.6667 33.88 14.6667 44V45.8333C14.6667 48.8767 17.1233 51.3333 20.1667 51.3333H53.1667C56.21 51.3333 58.6667 48.8767 58.6667 45.8333V44C58.6667 33.88 50.4533 25.6667 40.3333 25.6667ZM22 44C22 37.95 26.95 33 33 33H40.3333C46.3833 33 51.3333 37.95 51.3333 44H22ZM16.5 22C18.2233 22 19.8 21.56 21.1567 20.79C19.6189 18.3416 18.6782 15.5659 18.4107 12.6869C18.1432 9.80802 18.5563 6.90653 19.6167 4.21667C18.6633 3.88667 17.6 3.66667 16.5 3.66667C11.22 3.66667 7.33333 7.55333 7.33333 12.8333C7.33333 18.1133 11.22 22 16.5 22ZM15.07 25.6667H12.8333C5.75667 25.6667 0 31.4233 0 38.5V42.1667C0 43.1933 0.806667 44 1.83333 44H7.33333C7.33333 36.8133 10.3033 30.3233 15.07 25.6667ZM56.8333 22C62.1133 22 66 18.1133 66 12.8333C66 7.55333 62.1133 3.66667 56.8333 3.66667C55.6967 3.66667 54.67 3.88667 53.7167 4.21667C54.777 6.90653 55.1901 9.80802 54.9226 12.6869C54.6551 15.5659 53.7145 18.3416 52.1767 20.79C53.5333 21.56 55.0733 22 56.8333 22ZM60.5 25.6667H58.2633C60.7133 28.0499 62.6604 30.9004 63.9893 34.0494C65.3182 37.1984 66.0019 40.5821 66 44H71.5C72.5267 44 73.3333 43.1933 73.3333 42.1667V38.5C73.3333 31.4233 67.5767 25.6667 60.5 25.6667Z" fill="white"/>
</svg>
