<svg width="65" height="65" viewBox="0 0 65 65" fill="none" xmlns="http://www.w3.org/2000/svg">
<path d="M1.5 63.1667C1.5 58.8037 1.5 56.6238 2.85667 55.2733C4.21025 53.9167 6.38708 53.9167 10.75 53.9167C15.1129 53.9167 17.2928 53.9167 18.6433 55.2733C20 56.6269 20 58.8068 20 63.1667V35.4167C20 31.0537 20 28.8738 21.3567 27.5233C22.7102 26.1667 24.8902 26.1667 29.25 26.1667H35.4167C39.7796 26.1667 41.9595 26.1667 43.31 27.5233C44.6667 28.8769 44.6667 31.0568 44.6667 35.4167V63.1667V53.9167C44.6667 49.5537 44.6667 47.3738 46.0233 46.0233C47.3769 44.6667 49.5537 44.6667 53.9167 44.6667C58.2796 44.6667 60.4595 44.6667 61.81 46.0233C63.1667 47.3769 63.1667 49.5568 63.1667 53.9167V63.1667" stroke="white" stroke-width="3" stroke-linecap="round"/>
<path d="M29.7002 4.65425C30.8719 2.54833 31.4577 1.5 32.3334 1.5C33.209 1.5 33.7949 2.54833 34.9665 4.65425L35.2687 5.19692C35.6017 5.79508 35.7682 6.09108 36.0272 6.28842C36.2893 6.48575 36.613 6.55975 37.2605 6.70467L37.8464 6.84033C40.1219 7.35525 41.2596 7.61117 41.531 8.48067C41.8023 9.35017 41.0253 10.2597 39.4744 12.0727L39.0735 12.5414C38.6326 13.0563 38.4106 13.3122 38.312 13.6329C38.2133 13.9536 38.2472 14.2958 38.312 14.9834L38.3736 15.6093C38.608 18.0298 38.7251 19.2415 38.019 19.778C37.3099 20.3176 36.243 19.8242 34.1125 18.8437L33.5636 18.5909C32.9562 18.3134 32.654 18.1716 32.3334 18.1716C32.0127 18.1716 31.7105 18.3134 31.1031 18.5909L30.5543 18.8437C28.4237 19.8242 27.3569 20.3176 26.6477 19.778C25.9386 19.2415 26.0588 18.0298 26.2931 15.6093L26.3548 14.9834C26.4195 14.2958 26.4535 13.9536 26.3548 13.6329C26.2561 13.3122 26.0341 13.0563 25.5932 12.5414L25.1924 12.0727C23.6415 10.2597 22.8645 9.35325 23.1358 8.48067C23.4071 7.61117 24.5449 7.35525 26.8204 6.84033L27.4062 6.70467C28.0537 6.55975 28.3775 6.48883 28.6395 6.28842C28.8985 6.09108 29.0651 5.79508 29.3981 5.19692L29.7002 4.65425Z" stroke="white" stroke-width="3"/>
</svg>
