<svg width="65" height="62" viewBox="0 0 65 62" fill="none" xmlns="http://www.w3.org/2000/svg">
<path d="M32.3438 0C31.1349 1.42501 29.535 2.89827 27.8106 4.49403C25.551 6.58492 23.0945 8.84831 21.1465 11.186C19.1987 13.5235 17.7946 15.9203 17.4741 18.193C17.1689 20.3565 17.7318 22.4785 19.937 24.8293H44.7507C46.9557 22.4785 47.5188 20.3565 47.2135 18.1931C46.8928 15.9203 45.4888 13.5235 43.5409 11.1861C41.593 8.84871 39.1365 6.58519 36.8767 4.49416C35.1527 2.8984 33.5526 1.42501 32.3438 0ZM2.15625 5.42297C0 7.57922 0 9.73547 0 11.8917H0.943359V21.4601H0V23.8859H0.943359V61.4855H3.36914V23.8859H4.3125V21.4601H3.36914V11.8917H4.3125C4.3125 9.73547 4.3125 7.57922 2.15625 5.42297ZM62.5312 5.42297C60.375 7.57922 60.375 9.73547 60.375 11.8917H61.3184V21.4601H60.375V23.8859H61.3184V61.4855H63.7441V23.8859H64.6875V21.4601H63.7441V11.8917H64.6875C64.6875 9.73547 64.6875 7.57922 62.5312 5.42297ZM12.9375 23.8859C10.7812 26.0421 8.625 28.1984 8.625 30.3546V33.4542H17.25V30.3546C17.25 28.1984 15.0938 26.0421 12.9375 23.8859ZM51.75 23.8859C49.5938 26.0421 47.4375 28.1984 47.4375 30.3546V33.4542H56.0625V30.3546C56.0625 28.1984 53.9062 26.0421 51.75 23.8859ZM20.6191 27.255V29.1417H44.0684V27.255H20.6191ZM20.6191 31.5675V61.4855H25.875V43.2921C25.875 41.1359 30.1875 36.8234 32.3438 34.6671C34.5 36.8234 38.8125 41.1359 38.8125 43.2921V61.4855H44.0684V31.5675H20.6191ZM7.68164 35.88V61.4855H18.1934V35.88H7.68164ZM46.4941 35.88V61.4855H57.0059V35.88H46.4941ZM12.9375 36.8234C12.9375 36.8234 15.0938 37.933 15.0938 38.9796V43.2921H10.7812V38.9796C10.7812 37.933 12.9375 36.8234 12.9375 36.8234ZM51.75 37.5597C51.75 37.5597 53.9062 38.6692 53.9062 39.716V44.0285H49.5938V39.716C49.5938 38.6692 51.75 37.5597 51.75 37.5597ZM12.9375 45.4484C12.9375 45.4484 15.0938 46.558 15.0938 47.6046V51.9171H10.7812V47.6046C10.7812 46.558 12.9375 45.4484 12.9375 45.4484ZM51.75 45.4484C51.75 45.4484 53.9062 46.558 53.9062 47.6046V51.9171H49.5938V47.6046C49.5938 46.558 51.75 45.4484 51.75 45.4484ZM12.9375 54.0734C12.9375 54.0734 15.0938 55.183 15.0938 56.2296V60.5421H10.7812V56.2296C10.7812 55.183 12.9375 54.0734 12.9375 54.0734ZM51.75 54.0734C51.75 54.0734 53.9062 55.183 53.9062 56.2296V60.5421H49.5938V56.2296C49.5938 55.183 51.75 54.0734 51.75 54.0734Z" fill="white"/>
</svg>
